<svg width="18" height="18" viewBox="0 0 18 18" fill="none" xmlns="http://www.w3.org/2000/svg">
<path d="M9 0C4.02953 0 0 4.02953 0 9C0 13.9705 4.02953 18 9 18C13.9705 18 18 13.9705 18 9C18 4.02953 13.9705 0 9 0ZM16.4242 8.23157H9.76843V1.57576C13.2769 1.93445 16.0656 4.72343 16.4242 8.23157ZM8.23157 1.57576V8.23157H1.57576C1.93445 4.72314 4.72343 1.93445 8.23157 1.57576ZM1.57576 9.76843H8.23157V16.4242C4.72314 16.0656 1.93445 13.2766 1.57576 9.76843ZM9.76843 16.4242V9.76843H16.4242C16.0656 13.2769 13.2766 16.0656 9.76843 16.4242Z" fill="#FF2528"/>
</svg>
