<svg width="47" height="45" viewBox="0 0 47 45" fill="none" xmlns="http://www.w3.org/2000/svg">
<path fill-rule="evenodd" clip-rule="evenodd" d="M23.1522 44.5303C23.5439 45.1566 24.4561 45.1566 24.8478 44.5303L30.8087 35L44 35C45.6569 35 47 33.6569 47 32L47 3C47 1.34315 45.6569 3.71031e-06 44 3.56547e-06L3 -1.88653e-08C1.34314 -1.63712e-07 1.90568e-09 1.34315 -1.42941e-07 3L-2.6782e-06 32C-2.82305e-06 33.6569 1.34314 35 3 35L17.1913 35L23.1522 44.5303Z" fill="#F8F8F8"/>
<path d="M14.167 15.447V15.759C14.167 17.605 13.556 19.568 11.84 20.569L12.815 21.869C14.739 20.764 15.467 18.255 15.467 15.759V15.447H14.167ZM14.505 15.447V15.759C14.505 18.216 15.246 20.569 17.196 21.583L18.132 20.309C16.429 19.399 15.805 17.566 15.805 15.759V15.447H14.505ZM12.243 14.147V15.538H17.716V14.147H12.243ZM14.167 12.522V15.265H15.805V12.522H14.167ZM20.849 12.119V24.157H22.487V12.119H20.849ZM19.406 16.734V18.138H21.408V16.734H19.406ZM18.262 12.301V23.611H19.874V12.301H18.262ZM24.683 17.514V18.879H25.71C28.245 18.879 29.766 18.853 31.456 18.567L31.287 17.228C29.636 17.488 28.193 17.514 25.71 17.514H24.683ZM24.683 12.951V18.073H26.399V14.316H30.468V12.951H24.683ZM25.866 15.239V16.565H30.117V15.239H25.866ZM32.288 12.132V19.399H34.03V12.132H32.288ZM29.961 19.581C27.413 19.581 25.84 20.426 25.84 21.869C25.84 23.325 27.413 24.157 29.961 24.157C32.496 24.157 34.082 23.325 34.082 21.869C34.082 20.426 32.496 19.581 29.961 19.581ZM29.961 20.907C31.521 20.907 32.353 21.219 32.353 21.869C32.353 22.532 31.521 22.844 29.961 22.844C28.388 22.844 27.569 22.532 27.569 21.869C27.569 21.219 28.388 20.907 29.961 20.907Z" fill="black"/>
</svg>
