<svg width="18" height="18" viewBox="0 0 18 18" fill="none" xmlns="http://www.w3.org/2000/svg">
<path d="M17.362 8.36243H10.5396L15.3638 3.53826C15.6128 3.28928 15.6128 2.88543 15.3638 2.63619C15.1148 2.38721 14.711 2.38721 14.4617 2.63619L9.63757 7.46036V0.637701C9.63757 0.285389 9.35193 0 8.99987 0C8.64781 0 8.36217 0.285645 8.36217 0.637701V7.46036L3.538 2.63619C3.28902 2.38721 2.88517 2.38721 2.63593 2.63619C2.3867 2.88517 2.38695 3.28902 2.63593 3.53826L7.4601 8.36243H0.637701C0.285388 8.36243 0 8.64807 0 9.00013C0 9.35219 0.285645 9.63783 0.637701 9.63783H7.4601L2.63593 14.462C2.38695 14.711 2.38695 15.1148 2.63593 15.3641C2.88491 15.613 3.28876 15.613 3.538 15.3641L8.36217 10.5399V17.3623C8.36217 17.7146 8.64781 18 8.99987 18C9.35193 18 9.63757 17.7144 9.63757 17.3623V10.5399L14.4617 15.3641C14.7107 15.613 15.1146 15.613 15.3638 15.3641C15.6128 15.1151 15.6128 14.7112 15.3638 14.462L10.5396 9.63783H17.362C17.7143 9.63783 17.9997 9.35219 17.9997 9.00013C17.9997 8.64807 17.7141 8.36243 17.362 8.36243Z" fill="#29AAE4"/>
</svg>
