<svg width="18" height="18" viewBox="0 0 18 18" fill="none" xmlns="http://www.w3.org/2000/svg">
<path d="M8.96074 3.42725C5.90488 3.42725 3.42773 5.90439 3.42773 8.96025C3.42773 12.0161 5.90488 14.4933 8.96074 14.4933C12.0166 14.4933 14.4937 12.0161 14.4937 8.96025C14.4937 5.90439 12.0166 3.42725 8.96074 3.42725ZM8.96074 12.7432C6.87138 12.7432 5.17778 11.0496 5.17778 8.96025C5.17778 6.87089 6.87138 5.1773 8.96074 5.1773C11.0501 5.1773 12.7437 6.87089 12.7437 8.96025C12.7437 11.0496 11.0501 12.7432 8.96074 12.7432Z" fill="#FDCC00"/>
<path d="M10.6812 9.63608C11.0544 8.73498 10.6265 7.70192 9.72541 7.32868C8.82432 6.95543 7.79126 7.38334 7.41801 8.28444C7.04476 9.18553 7.47267 10.2186 8.37377 10.5918C9.27486 10.9651 10.3079 10.5372 10.6812 9.63608Z" fill="#FDCC00"/>
<path d="M9 1.53606C13.1158 1.53606 16.4639 4.88424 16.4639 9C16.4639 13.1155 13.1158 16.4639 9 16.4639C4.88453 16.4639 1.53606 13.1158 1.53606 9C1.53606 4.88424 4.88424 1.53606 9 1.53606ZM9 0C4.02946 0 0 4.02946 0 9C0 13.9705 4.02946 18 9 18C13.9705 18 18 13.9705 18 9C18 4.02946 13.9705 0 9 0Z" fill="#F6CC00"/>
</svg>
