<svg width="189" height="189" viewBox="0 0 189 189" fill="none" xmlns="http://www.w3.org/2000/svg">
<rect x="1" y="1" width="187" height="187" rx="93.5" stroke="#2087FF" stroke-width="2" stroke-dasharray="4 4"/>
<path d="M101.685 94.6L94.0182 87L86.3516 94.6" stroke="#2086FF" stroke-width="2" stroke-linecap="round" stroke-linejoin="round"/>
<path d="M94.0195 87V104.1" stroke="#2086FF" stroke-width="2" stroke-linecap="round" stroke-linejoin="round"/>
<path d="M110.098 99.1401C114.736 96.6321 116.461 90.8561 113.931 86.2581C112.245 83.1991 109.025 81.2991 105.517 81.2991H103.102C100.975 73.1671 92.6181 68.2841 84.4147 70.3931C76.2114 72.5021 71.2856 80.7861 73.4131 88.8991C74.0264 91.2171 75.1764 93.3641 76.7672 95.1691" stroke="#2086FF" stroke-width="2" stroke-linecap="round" stroke-linejoin="round"/>
<path d="M101.685 94.6L94.0182 87L86.3516 94.6" stroke="#2086FF" stroke-width="2" stroke-linecap="round" stroke-linejoin="round"/>
<path d="M31.0018 128C33.5818 128 35.0458 126.392 35.0338 123.752C35.0458 121.1 33.5818 119.516 31.0978 119.504H28.3618V128H31.0018ZM29.4178 127.064V120.44H31.0498C33.0058 120.452 34.0138 121.688 34.0258 123.752C34.0138 125.804 33.0058 127.064 30.9298 127.064H29.4178ZM36.4443 128H37.4763V123.992C37.4643 123.14 38.1483 122.504 39.0603 122.504C39.3243 122.504 39.6003 122.552 39.6603 122.576V121.544C39.5523 121.544 39.3003 121.532 39.1563 121.544C38.4003 121.532 37.7283 121.964 37.5003 122.6H37.4283V121.64H36.4443V128ZM40.3399 126.2C40.3399 127.436 41.2999 128.144 42.5239 128.144C43.6159 128.144 44.1919 127.556 44.3959 127.136H44.4439V128H45.4519V123.8C45.4519 121.796 43.8919 121.556 43.0519 121.544C41.6479 121.556 40.6519 122.264 40.5319 123.296H41.5879C41.7199 122.804 42.2119 122.432 43.0039 122.432C43.9759 122.432 44.4559 122.9 44.4439 123.704V124.232C44.1559 124.232 43.1479 124.292 42.7399 124.328C41.6239 124.4 40.3399 124.736 40.3399 126.2ZM41.3479 126.248C41.3479 125.552 41.9359 125.228 42.8599 125.168L44.4439 125.048V125.696C44.4559 126.488 43.8199 127.256 42.6679 127.256C41.9119 127.256 41.3479 126.92 41.3479 126.248ZM49.6535 130.52C51.2135 130.52 52.4135 129.812 52.4135 128.168V121.64H51.4295V122.648H51.3575C51.1295 122.312 50.7335 121.556 49.4855 121.544C47.8895 121.556 46.7735 122.768 46.7735 124.736C46.7735 126.728 47.9375 127.904 49.4855 127.904C50.7095 127.904 51.1175 127.184 51.3335 126.824H51.4055V128.12C51.4175 129.164 50.7455 129.644 49.6535 129.632C48.7535 129.644 48.1535 129.32 48.0215 128.672H46.9655C47.0735 129.848 48.1175 130.52 49.6535 130.52ZM47.8055 124.76C47.7935 123.488 48.3935 122.456 49.6295 122.456C50.8055 122.456 51.4295 123.404 51.4295 124.76C51.4295 126.164 50.7815 127.004 49.6295 127.016C48.4175 127.004 47.7935 126.08 47.8055 124.76ZM56.7345 126.2C56.7345 127.436 57.6945 128.144 58.9185 128.144C60.0105 128.144 60.5865 127.556 60.7905 127.136H60.8385V128H61.8465V123.8C61.8465 121.796 60.2865 121.556 59.4465 121.544C58.0425 121.556 57.0465 122.264 56.9265 123.296H57.9825C58.1145 122.804 58.6065 122.432 59.3985 122.432C60.3705 122.432 60.8505 122.9 60.8385 123.704V124.232C60.5505 124.232 59.5425 124.292 59.1345 124.328C58.0185 124.4 56.7345 124.736 56.7345 126.2ZM57.7425 126.248C57.7425 125.552 58.3305 125.228 59.2545 125.168L60.8385 125.048V125.696C60.8505 126.488 60.2145 127.256 59.0625 127.256C58.3065 127.256 57.7425 126.92 57.7425 126.248ZM64.4881 124.184C64.4761 123.08 65.1601 122.456 66.0961 122.456C66.9841 122.456 67.5241 123.044 67.5361 124.04V128H68.5441V123.944C68.5441 122.336 67.6801 121.556 66.3841 121.544C65.4241 121.556 64.8241 121.988 64.5361 122.648H64.4401V121.64H63.4561V128H64.4881V124.184ZM72.548 128.144C73.76 128.132 74.168 127.376 74.396 127.016H74.492V128H75.476V119.504H74.468V122.648H74.396C74.18 122.312 73.796 121.556 72.548 121.544C70.952 121.556 69.836 122.816 69.836 124.832C69.836 126.86 70.952 128.132 72.548 128.144ZM70.868 124.808C70.856 123.488 71.456 122.456 72.692 122.456C73.868 122.456 74.492 123.404 74.492 124.808C74.492 126.248 73.844 127.232 72.692 127.232C71.48 127.232 70.856 126.164 70.868 124.808ZM82.9862 128C85.5662 128 87.0302 126.392 87.0182 123.752C87.0302 121.1 85.5662 119.516 83.0822 119.504H80.3462V128H82.9862ZM81.4022 127.064V120.44H83.0342C84.9902 120.452 85.9982 121.688 86.0102 123.752C85.9982 125.804 84.9902 127.064 82.9142 127.064H81.4022ZM88.4287 128H89.4607V123.992C89.4487 123.14 90.1327 122.504 91.0447 122.504C91.3087 122.504 91.5847 122.552 91.6447 122.576V121.544C91.5367 121.544 91.2847 121.532 91.1407 121.544C90.3847 121.532 89.7127 121.964 89.4847 122.6H89.4127V121.64H88.4287V128ZM95.0408 128.144C96.7688 128.132 97.9328 126.824 97.9208 124.856C97.9328 122.864 96.7688 121.556 95.0408 121.544C93.3128 121.556 92.1368 122.864 92.1368 124.856C92.1368 126.824 93.3128 128.132 95.0408 128.144ZM93.1448 124.856C93.1448 123.584 93.7448 122.444 95.0408 122.456C96.3248 122.444 96.9248 123.584 96.9128 124.856C96.9248 126.116 96.3248 127.232 95.0408 127.232C93.7448 127.232 93.1448 126.116 93.1448 124.856ZM99.2217 130.376H100.254V127.016H100.326C100.542 127.376 100.962 128.132 102.174 128.144C103.77 128.132 104.874 126.86 104.886 124.832C104.874 122.816 103.77 121.556 102.174 121.544C100.938 121.556 100.542 122.312 100.326 122.648H100.206V121.64H99.2217V130.376ZM100.23 124.808C100.23 123.404 100.854 122.456 102.03 122.456C103.266 122.456 103.866 123.488 103.878 124.808C103.866 126.164 103.242 127.232 102.03 127.232C100.866 127.232 100.23 126.248 100.23 124.808ZM111.991 121.64H110.647V120.104H109.615V121.64H108.655V122.48H109.615V126.44C109.627 127.556 110.515 128.084 111.367 128.072C111.667 128.084 111.919 128.06 112.063 128.024V127.088C111.919 127.1 111.655 127.124 111.463 127.112C111.043 127.124 110.635 126.992 110.647 126.176V122.48H111.991V121.64ZM115.806 128.144C117.534 128.132 118.698 126.824 118.686 124.856C118.698 122.864 117.534 121.556 115.806 121.544C114.078 121.556 112.902 122.864 112.902 124.856C112.902 126.824 114.078 128.132 115.806 128.144ZM113.91 124.856C113.91 123.584 114.51 122.444 115.806 122.456C117.09 122.444 117.69 123.584 117.678 124.856C117.69 126.116 117.09 127.232 115.806 127.232C114.51 127.232 113.91 126.116 113.91 124.856ZM128.675 119.504V125.048C128.687 126.272 127.835 127.16 126.443 127.16C125.039 127.16 124.187 126.272 124.187 125.048V119.504H123.131V125.12C123.131 126.872 124.427 128.144 126.443 128.144C128.435 128.144 129.743 126.872 129.755 125.12V119.504H128.675ZM131.483 130.376H132.515V127.016H132.587C132.803 127.376 133.223 128.132 134.435 128.144C136.031 128.132 137.135 126.86 137.147 124.832C137.135 122.816 136.031 121.556 134.435 121.544C133.199 121.556 132.803 122.312 132.587 122.648H132.467V121.64H131.483V130.376ZM132.491 124.808C132.491 123.404 133.115 122.456 134.291 122.456C135.527 122.456 136.127 123.488 136.139 124.808C136.127 126.164 135.503 127.232 134.291 127.232C133.127 127.232 132.491 126.248 132.491 124.808ZM139.476 119.504H138.444V128H139.476V119.504ZM143.674 128.144C145.402 128.132 146.566 126.824 146.554 124.856C146.566 122.864 145.402 121.556 143.674 121.544C141.946 121.556 140.77 122.864 140.77 124.856C140.77 126.824 141.946 128.132 143.674 128.144ZM141.778 124.856C141.778 123.584 142.378 122.444 143.674 122.456C144.958 122.444 145.558 123.584 145.546 124.856C145.558 126.116 144.958 127.232 143.674 127.232C142.378 127.232 141.778 126.116 141.778 124.856ZM147.567 126.2C147.567 127.436 148.527 128.144 149.751 128.144C150.843 128.144 151.419 127.556 151.623 127.136H151.671V128H152.679V123.8C152.679 121.796 151.119 121.556 150.279 121.544C148.875 121.556 147.879 122.264 147.759 123.296H148.815C148.947 122.804 149.439 122.432 150.23 122.432C151.203 122.432 151.683 122.9 151.671 123.704V124.232C151.383 124.232 150.375 124.292 149.967 124.328C148.851 124.4 147.567 124.736 147.567 126.2ZM148.575 126.248C148.575 125.552 149.163 125.228 150.087 125.168L151.671 125.048V125.696C151.683 126.488 151.047 127.256 149.895 127.256C149.139 127.256 148.575 126.92 148.575 126.248ZM156.712 128.144C157.924 128.132 158.332 127.376 158.56 127.016H158.656V128H159.64V119.504H158.632V122.648H158.56C158.344 122.312 157.96 121.556 156.712 121.544C155.116 121.556 154 122.816 154 124.832C154 126.86 155.116 128.132 156.712 128.144ZM155.032 124.808C155.02 123.488 155.62 122.456 156.856 122.456C158.032 122.456 158.656 123.404 158.656 124.808C158.656 126.248 158.008 127.232 156.856 127.232C155.644 127.232 155.02 126.164 155.032 124.808Z" fill="#2087FF"/>
</svg>
