<svg width="130" height="55" viewBox="0 0 130 55" fill="none" xmlns="http://www.w3.org/2000/svg">
<g filter="url(#filter0_d_1546_7174)">
<path fill-rule="evenodd" clip-rule="evenodd" d="M106.001 45C107.658 45 109.001 43.6569 109.001 42L109.001 34.8813L118.647 28.8478C119.274 28.4561 119.274 27.5439 118.647 27.1522L109.001 21.1187L109.001 13C109.001 11.3431 107.658 10 106.001 10L13.001 9.99999C11.3442 9.99999 10.001 11.3431 10.001 13L10.001 42C10.001 43.6568 11.3442 45 13.001 45L106.001 45Z" fill="#F8F8F8"/>
</g>
<path d="M32.1842 22.678H30.7802V25.694H28.7522V26.838H30.7802V31.05H32.1842V22.678ZM22.5642 28.554L23.2922 29.698C24.6442 29.23 25.5932 28.268 26.1002 27.072C26.5942 28.151 27.5042 29.035 28.7782 29.464L29.5062 28.346C27.7252 27.761 26.8022 26.331 26.8022 24.94V24.628H29.1682V23.484H22.9802V24.628H25.3722V24.94C25.3592 26.461 24.3842 27.969 22.5642 28.554ZM24.6702 33.91H32.4702V32.766H26.0742V30.322H24.6702V33.91ZM37.3355 26.162V25.798H39.2335V24.654H37.3095V23.068H35.9835V24.654H34.0335V25.798H35.9835V26.162C35.9835 27.969 35.2685 29.893 33.6435 30.842L34.4755 31.908C35.5545 31.271 36.2695 30.153 36.6725 28.84C37.0755 30.049 37.8035 31.063 38.8695 31.622L39.6495 30.582C38.0505 29.724 37.3225 27.93 37.3355 26.162ZM38.5315 28.216H40.0395V33.572H41.3655V22.886H40.0395V27.072H38.5315V28.216ZM42.3535 34.118H43.6795V22.652H42.3535V34.118ZM57.2326 22.652H55.8026V34.118H57.2326V28.58H58.8446V27.384H57.2326V22.652ZM48.0026 30.946L48.2106 32.116C50.1736 32.103 52.8256 32.09 55.2826 31.648L55.2046 30.608C54.2946 30.738 53.3326 30.816 52.3706 30.868V29.854C53.6186 29.633 54.4506 28.853 54.4506 27.774C54.4506 26.474 53.2936 25.616 51.6686 25.616C50.0176 25.616 48.8736 26.474 48.8866 27.774C48.8736 28.853 49.6926 29.633 50.9406 29.841V30.92C49.8876 30.946 48.8736 30.946 48.0026 30.946ZM48.2366 25.096H55.0746V23.978H52.3706V22.704H50.9406V23.978H48.2366V25.096ZM50.2126 27.774C50.2126 27.098 50.7976 26.695 51.6686 26.708C52.5266 26.695 53.0986 27.098 53.0986 27.774C53.0986 28.424 52.5266 28.814 51.6686 28.814C50.7976 28.814 50.2126 28.424 50.2126 27.774ZM65.2699 23.614H59.8879V29.126H65.2699V28.138H67.5839V31.024H68.9879V22.678H67.5839V24.524H65.2699V23.614ZM61.2919 28.008V24.732H63.8919V28.008H61.2919ZM61.4219 33.91H69.2479V32.766H62.8519V30.244H61.4219V33.91ZM65.2699 26.994V25.694H67.5839V26.994H65.2699ZM84.2049 31.596H79.6289V29.36H83.0089V23.406H81.6049V25.304H76.2749V23.406H74.8709V29.36H78.2509V31.596H73.7269V32.74H84.2049V31.596ZM76.2749 28.216V26.422H81.6049V28.216H76.2749ZM94.5303 22.652H93.1003V34.118H94.5303V22.652ZM85.0403 30.972L85.7683 32.09C89.7853 30.192 91.1113 27.293 91.1243 23.874H85.6123V24.992H89.6813C89.4213 27.605 88.0303 29.542 85.0403 30.972Z" fill="#1D1D1D"/>
<defs>
<filter id="filter0_d_1546_7174" x="0" y="0" width="129.117" height="55" filterUnits="userSpaceOnUse" color-interpolation-filters="sRGB">
<feFlood flood-opacity="0" result="BackgroundImageFix"/>
<feColorMatrix in="SourceAlpha" type="matrix" values="0 0 0 0 0 0 0 0 0 0 0 0 0 0 0 0 0 0 127 0" result="hardAlpha"/>
<feOffset/>
<feGaussianBlur stdDeviation="5"/>
<feComposite in2="hardAlpha" operator="out"/>
<feColorMatrix type="matrix" values="0 0 0 0 0 0 0 0 0 0 0 0 0 0 0 0 0 0 0.35 0"/>
<feBlend mode="normal" in2="BackgroundImageFix" result="effect1_dropShadow_1546_7174"/>
<feBlend mode="normal" in="SourceGraphic" in2="effect1_dropShadow_1546_7174" result="shape"/>
</filter>
</defs>
</svg>
