<svg width="56" height="43" viewBox="0 0 56 43" fill="none" xmlns="http://www.w3.org/2000/svg">
<path d="M26.7328 1.78344C27.1017 1.04759 28.1519 1.04759 28.5208 1.78344L33.3673 11.4519C33.7006 12.1168 33.2171 12.9 32.4733 12.9L22.7804 12.9C22.0365 12.9 21.5531 12.1168 21.8864 11.4519L26.7328 1.78344Z" fill="white"/>
<path d="M0 11.5996C0 9.94275 1.34315 8.59961 3 8.59961L53 8.59961C54.6569 8.59961 56 9.94276 56 11.5996V39.9996C56 41.6565 54.6569 42.9996 53 42.9996L3 42.9996C1.34314 42.9996 0 41.6565 0 39.9996L0 11.5996Z" fill="white"/>
<path d="M15.0742 23.734H16.7642C16.4652 21.94 14.9052 20.679 12.8642 20.692C10.4722 20.679 8.6782 22.46 8.6782 25.398C8.6782 28.323 10.3942 30.13 12.9162 30.13C15.2042 30.13 16.8292 28.661 16.8162 26.282V25.19H13.0982V26.49H15.2302C15.2042 27.803 14.3332 28.635 12.9422 28.648C11.3952 28.635 10.3292 27.478 10.3422 25.398C10.3292 23.318 11.4082 22.161 12.8902 22.174C14.0082 22.161 14.7622 22.772 15.0742 23.734ZM18.6731 30H20.2851V23.11H18.6731V30ZM18.5431 21.238C18.5431 21.732 18.9721 22.122 19.4791 22.122C19.9991 22.122 20.4151 21.732 20.4151 21.238C20.4151 20.757 19.9991 20.367 19.4791 20.354C18.9721 20.367 18.5431 20.757 18.5431 21.238ZM25.2789 23.11H23.9269V21.446H22.3149V23.11H21.3269V24.358H22.3149V28.206C22.3019 29.493 23.2379 30.091 24.4469 30.104C24.8629 30.091 25.1749 30.065 25.3829 30.026V28.7C25.1619 28.713 24.8499 28.739 24.6549 28.726C24.2519 28.726 23.9269 28.596 23.9269 27.92V24.358H25.2789V23.11ZM28.2831 25.97C28.2831 24.956 28.9071 24.384 29.7911 24.384C30.6361 24.384 31.1431 24.93 31.1431 25.866V30H32.7551V25.606C32.7551 23.942 31.8191 23.019 30.3891 23.006C29.3231 23.019 28.6601 23.5 28.3351 24.28H28.2571V20.796H26.6711V30H28.2831V25.97ZM38.7077 27.088C38.7077 28.154 37.9537 28.674 37.2257 28.674C36.4587 28.674 35.9257 28.128 35.9257 27.244V23.11H34.3137V27.504C34.3137 29.155 35.2497 30.091 36.6017 30.078C37.6547 30.091 38.3697 29.545 38.6817 28.778H38.7597V30H40.3197V23.11H38.7077V27.088ZM41.9581 30H43.5441V28.908H43.6481C43.8951 29.415 44.4281 30.117 45.6241 30.13C47.2361 30.117 48.4581 28.83 48.4581 26.568C48.4581 24.267 47.1971 23.019 45.5981 23.006C44.3891 23.019 43.8951 23.747 43.6481 24.228H43.5701V20.796H41.9581V30ZM43.5441 26.542C43.5311 25.216 44.1161 24.345 45.1561 24.332C46.2481 24.345 46.8071 25.268 46.8201 26.542C46.8071 27.855 46.2351 28.791 45.1561 28.804C44.1291 28.791 43.5311 27.894 43.5441 26.542Z" fill="#1D1D1D"/>
</svg>
