<svg width="85" height="46" viewBox="0 0 85 46" fill="none" xmlns="http://www.w3.org/2000/svg">
<path d="M41.1161 1.14579C41.5148 0.585236 42.3472 0.585237 42.7459 1.14579L50.6225 12.2205C51.0934 12.8826 50.62 13.8001 49.8076 13.8001L34.0544 13.8001C33.2419 13.8001 32.7686 12.8826 33.2395 12.2205L41.1161 1.14579Z" fill="white"/>
<path d="M0 12.1992C0 10.5424 1.34315 9.19922 3 9.19922L82 9.19922C83.6569 9.19922 85 10.5424 85 12.1992V42.9995C85 44.6564 83.6569 45.9996 82 45.9996L3 45.9996C1.34315 45.9996 0 44.6564 0 42.9996L0 12.1992Z" fill="white"/>
<path d="M15.7431 23.796H14.1051L14.1051 33H15.7431L15.7431 23.796ZM18.9906 28.97C18.9906 27.956 19.6016 27.384 20.4466 27.384C21.3046 27.384 21.8116 27.93 21.7986 28.866V33H23.4106V28.606C23.4236 26.955 22.4876 26.019 21.0706 26.006C20.0306 26.019 19.3286 26.5 19.0166 27.28H18.9126V26.11H17.3786V33H18.9906V28.97ZM28.8704 28.06H30.4044C30.2874 26.825 29.2734 26.019 27.6224 26.006C25.9454 26.019 24.8404 26.851 24.8404 28.138C24.8404 29.113 25.5034 29.776 26.7904 30.036L27.9084 30.27C28.5844 30.426 28.8964 30.686 28.8964 31.076C28.8964 31.596 28.3894 31.908 27.5964 31.908C26.8554 31.908 26.4004 31.622 26.2964 31.024H24.6584C24.8144 32.35 25.8544 33.143 27.6224 33.13C29.4034 33.143 30.5474 32.233 30.5344 30.946C30.5474 29.958 29.9104 29.347 28.6104 29.074L27.4404 28.814C26.7384 28.658 26.4524 28.398 26.4524 28.034C26.4524 27.566 26.9594 27.215 27.6484 27.228C28.3374 27.215 28.7664 27.553 28.8704 28.06ZM35.2198 26.11H33.8678V24.446H32.2558V26.11H31.2678V27.358H32.2558V31.206C32.2428 32.493 33.1788 33.091 34.3878 33.104C34.8038 33.091 35.1158 33.065 35.3238 33.026V31.7C35.1028 31.713 34.7908 31.739 34.5958 31.726C34.1928 31.726 33.8678 31.596 33.8678 30.92V27.358H35.2198V26.11ZM36.1604 31.076C36.1474 32.415 37.1484 33.143 38.4484 33.13C39.5404 33.143 40.1904 32.623 40.4764 32.064H40.5284V33H42.0884V28.398C42.0884 26.552 40.5804 26.019 39.2804 26.006C37.5514 26.019 36.4984 26.903 36.3684 28.06H37.9544C38.0714 27.579 38.5134 27.254 39.2284 27.254C40.0344 27.254 40.4764 27.644 40.4764 28.32V28.879C40.1904 28.892 39.2024 28.931 38.7084 28.97C37.4344 29.061 36.1474 29.503 36.1604 31.076ZM37.7204 31.05C37.7074 30.439 38.2014 30.114 38.9684 30.062C39.2934 30.023 40.1644 29.971 40.4764 29.958V30.53C40.4894 31.297 39.8654 31.947 38.8644 31.96C38.2014 31.947 37.7074 31.635 37.7204 31.05ZM46.6098 35.73C48.4818 35.73 49.8468 34.872 49.8598 33.104V26.11H48.2478V27.228H48.1698C47.9228 26.747 47.4028 26.019 46.1938 26.006C44.5948 26.019 43.3338 27.228 43.3338 29.49C43.3338 31.739 44.5818 32.896 46.1938 32.896C47.3638 32.896 47.9228 32.259 48.1698 31.752H48.2478V33.078C48.2478 34.092 47.6238 34.508 46.6358 34.508C45.8168 34.508 45.2578 34.222 45.1278 33.624H43.5158C43.6328 34.911 44.7898 35.73 46.6098 35.73ZM44.9978 29.516C44.9848 28.268 45.5438 27.345 46.6358 27.332C47.6758 27.345 48.2608 28.216 48.2478 29.516C48.2608 30.842 47.6628 31.635 46.6358 31.622C45.5568 31.635 44.9848 30.79 44.9978 29.516ZM51.3894 33H53.0014V28.944C53.0014 28.06 53.6644 27.449 54.5614 27.436C54.8344 27.449 55.1724 27.488 55.3154 27.54V26.058C55.1724 26.019 54.9124 26.006 54.7174 26.006C53.9374 26.006 53.2744 26.461 53.0274 27.254H52.9494V26.11L51.3894 26.11V33ZM55.8381 31.076C55.8251 32.415 56.8261 33.143 58.1261 33.13C59.2181 33.143 59.8681 32.623 60.1541 32.064H60.2061V33H61.7661V28.398C61.7661 26.552 60.2581 26.019 58.9581 26.006C57.2291 26.019 56.1761 26.903 56.0461 28.06H57.6321C57.7491 27.579 58.1911 27.254 58.9061 27.254C59.7121 27.254 60.1541 27.644 60.1541 28.32V28.879C59.8681 28.892 58.8801 28.931 58.3861 28.97C57.1121 29.061 55.8251 29.503 55.8381 31.076ZM57.3981 31.05C57.3851 30.439 57.8791 30.114 58.6461 30.062C58.9711 30.023 59.8421 29.971 60.1541 29.958V30.53C60.1671 31.297 59.5431 31.947 58.5421 31.96C57.8791 31.947 57.3851 31.635 57.3981 31.05ZM63.2976 33H64.9096V28.814C64.9096 27.956 65.4816 27.371 66.1836 27.384C66.8726 27.371 67.3536 27.839 67.3536 28.554V33H68.9396V28.684C68.9266 27.917 69.3946 27.371 70.1876 27.384C70.8506 27.371 71.3706 27.761 71.3576 28.632V33H72.9956V28.372C72.9826 26.838 72.0986 26.019 70.8376 26.006C69.8236 26.019 69.0696 26.513 68.7576 27.28H68.6796C68.4196 26.5 67.7566 26.019 66.8336 26.006C65.9106 26.019 65.2086 26.487 64.9356 27.28H64.8316V26.11H63.2976V33Z" fill="#1D1D1D"/>
</svg>
