<svg width="49" height="46" viewBox="0 0 49 46" fill="none" xmlns="http://www.w3.org/2000/svg">
<path d="M23.2478 2.20064C23.5906 1.38267 24.7495 1.38267 25.0923 2.20064L29.247 12.114C29.5232 12.773 29.0392 13.5005 28.3247 13.5005L20.0154 13.5005C19.3009 13.5005 18.8169 12.773 19.0931 12.114L23.2478 2.20064Z" fill="white"/>
<path d="M0 12C0 10.3431 1.34315 9 3 9L46 9C47.6569 9 49 10.3431 49 12L49 42.0015C49 43.6583 47.6569 45.0015 46 45.0015L3 45.0015C1.34314 45.0015 0 43.6583 0 42.0015L0 12Z" fill="white"/>
<path d="M12.942 22.796L12.942 32H14.528L14.528 25.656H14.606L17.154 31.974H18.35L20.898 25.682H20.976V32H22.562V22.796H20.534L17.804 29.478H17.7L14.97 22.796H12.942ZM23.8889 30.076C23.8759 31.415 24.8769 32.143 26.1769 32.13C27.2689 32.143 27.9189 31.623 28.2049 31.064H28.2569V32H29.8169V27.398C29.8169 25.552 28.3089 25.019 27.0089 25.006C25.2799 25.019 24.2269 25.903 24.0969 27.06H25.6829C25.7999 26.579 26.2419 26.254 26.9569 26.254C27.7629 26.254 28.2049 26.644 28.2049 27.32V27.879C27.9189 27.892 26.9309 27.931 26.4369 27.97C25.1629 28.061 23.8759 28.503 23.8889 30.076ZM25.4489 30.05C25.4359 29.439 25.9299 29.114 26.6969 29.062C27.0219 29.023 27.8929 28.971 28.2049 28.958V29.53C28.2179 30.297 27.5939 30.947 26.5929 30.96C25.9299 30.947 25.4359 30.635 25.4489 30.05ZM31.3484 32H32.9604V25.11H31.3484V32ZM31.2184 23.238C31.2184 23.732 31.6474 24.122 32.1544 24.122C32.6744 24.122 33.0904 23.732 33.0904 23.238C33.0904 22.757 32.6744 22.367 32.1544 22.354C31.6474 22.367 31.2184 22.757 31.2184 23.238ZM36.1342 22.796H34.5222V32H36.1342V22.796Z" fill="#1D1D1D"/>
</svg>
